<?xml version="1.0" standalone="no"?>
<!DOCTYPE svg PUBLIC "-//W3C//DTD SVG 20010904//EN"
 "http://www.w3.org/TR/2001/REC-SVG-20010904/DTD/svg10.dtd">
<svg version="1.0" xmlns="http://www.w3.org/2000/svg"
 width="760.000000pt" height="760.000000pt" viewBox="0 0 760.000000 760.000000"
 preserveAspectRatio="xMidYMid meet">
<metadata>
Created by potrace 1.14, written by Peter Selinger 2001-2017
</metadata>
<g transform="translate(0.000000,760.000000) scale(0.100000,-0.100000)"
fill="#000000" stroke="none">
<path d="M2202 6672 c-23 -9 -61 -35 -83 -57 -124 -121 -182 -339 -224 -845
-9 -102 -23 -207 -31 -233 -18 -54 -24 -59 -234 -208 -421 -299 -690 -615
-809 -952 -38 -107 -39 -141 -8 -162 21 -13 31 -12 121 21 54 19 100 33 102
31 2 -2 -17 -30 -42 -63 -131 -169 -257 -382 -318 -540 -61 -159 -108 -461
-76 -499 20 -24 63 -18 91 11 21 23 119 97 157 118 9 6 8 -3 -4 -31 -95 -220
-139 -523 -103 -719 24 -131 64 -137 151 -24 31 41 92 110 136 153 l78 78 -4
-138 c-7 -240 35 -466 118 -638 50 -100 93 -155 125 -155 25 0 55 24 55 44 0
7 20 53 44 102 46 95 105 174 166 223 l38 30 17 -72 c80 -336 322 -607 628
-703 54 -17 59 -17 74 -1 14 13 16 33 14 107 -1 49 0 90 3 90 3 0 34 -18 68
-41 180 -117 464 -221 788 -289 426 -90 832 -105 1200 -44 351 58 769 204 968
337 l52 36 0 -34 c0 -18 -7 -68 -15 -110 -24 -125 9 -146 122 -77 260 157 490
483 574 811 l11 45 30 -50 c17 -27 41 -72 54 -99 27 -61 46 -79 77 -71 62 15
161 333 188 599 l12 118 39 -38 c22 -21 60 -64 85 -95 44 -58 69 -70 102 -49
44 28 66 325 36 503 -17 106 -74 308 -101 359 -8 16 -11 29 -7 29 12 0 142
-77 180 -106 36 -27 75 -31 93 -9 17 20 8 130 -20 257 -54 244 -159 476 -334
741 l-19 28 58 -25 c69 -31 77 -32 100 -6 18 20 18 23 -2 113 -71 312 -282
620 -599 875 -136 108 -140 118 -148 327 -12 347 -71 617 -166 766 -38 59
-104 120 -162 150 -62 33 -165 33 -232 0 -146 -72 -351 -319 -517 -625 -30
-54 -64 -105 -76 -113 -29 -19 -73 -19 -151 1 -34 9 -127 28 -205 41 -382 64
-774 57 -1151 -20 -192 -40 -197 -39 -271 82 -266 436 -459 650 -641 714 -66
23 -145 24 -202 1z m181 -152 c132 -62 317 -278 499 -582 86 -143 125 -190
183 -217 59 -28 115 -27 266 5 402 83 826 84 1210 3 79 -17 176 -33 216 -36
65 -5 76 -2 123 23 61 33 90 69 155 189 166 308 394 565 500 565 82 0 164
-101 214 -265 44 -140 60 -270 85 -690 6 -105 59 -181 201 -288 169 -129 355
-335 461 -512 53 -89 109 -205 98 -205 -2 0 -24 10 -46 21 -58 30 -146 59
-176 59 -14 0 -36 -10 -49 -22 -39 -37 -30 -67 46 -158 157 -185 290 -399 366
-586 45 -111 99 -284 91 -291 -3 -3 -31 13 -63 34 -98 67 -229 133 -261 133
-31 0 -72 -38 -72 -66 0 -7 31 -73 70 -147 113 -216 180 -454 180 -639 l0 -79
-74 88 c-144 172 -190 200 -243 147 -20 -20 -24 -32 -20 -57 23 -124 27 -162
27 -239 0 -103 -23 -285 -48 -383 l-19 -70 -26 50 c-41 80 -120 188 -148 204
-22 12 -31 12 -57 2 -37 -16 -49 -44 -56 -141 -18 -250 -170 -556 -371 -750
-63 -61 -67 -63 -61 -35 4 17 9 83 13 148 6 113 5 119 -17 142 -42 44 -85 26
-142 -58 -10 -14 -57 -51 -104 -83 -202 -134 -567 -261 -939 -326 -114 -20
-164 -23 -410 -23 -175 0 -315 5 -375 13 -565 78 -954 211 -1200 412 -58 48
-75 53 -110 35 -38 -19 -44 -46 -45 -172 l0 -101 -40 24 c-189 111 -308 261
-379 474 -19 58 -40 148 -47 200 -13 102 -27 136 -62 149 -40 15 -80 -11 -193
-123 -97 -97 -117 -123 -158 -205 l-46 -93 -20 46 c-60 135 -89 369 -72 573 6
70 18 168 27 217 14 81 14 91 0 113 -21 31 -53 43 -87 31 -36 -13 -235 -203
-294 -281 l-47 -62 6 100 c17 256 111 502 257 668 46 52 51 89 18 124 -12 13
-33 23 -47 23 -32 0 -225 -105 -303 -166 -68 -52 -69 -50 -33 86 62 228 181
426 452 748 89 106 104 128 101 154 -2 20 -13 38 -30 51 -27 20 -29 20 -113 3
-47 -9 -115 -27 -150 -41 l-65 -24 26 52 c143 284 416 559 844 851 143 98 193
155 219 252 6 23 20 147 31 275 21 244 40 382 66 484 34 134 80 226 126 252
34 18 93 16 141 -7z"/>
<path d="M2321 6167 c-67 -23 -101 -136 -101 -340 0 -181 24 -293 69 -317 50
-26 176 2 313 71 131 66 174 118 156 187 -13 48 -130 217 -201 290 -98 100
-168 133 -236 109z"/>
<path d="M5445 6162 c-92 -26 -244 -209 -310 -370 -30 -73 -31 -94 -7 -134 36
-61 239 -128 390 -128 56 0 67 3 92 28 24 24 29 40 36 108 5 43 8 138 8 209
-1 107 -5 140 -23 186 -37 97 -94 128 -186 101z"/>
<path d="M2963 4266 c-114 -36 -171 -139 -143 -257 22 -92 127 -169 229 -169
188 0 280 241 145 376 -61 62 -139 78 -231 50z"/>
<path d="M4808 4266 c-56 -20 -85 -42 -113 -85 -50 -75 -42 -189 17 -257 50
-56 101 -78 185 -79 63 0 76 3 114 30 94 66 123 204 64 300 -55 89 -167 127
-267 91z"/>
<path d="M3795 3700 c-126 -27 -192 -89 -209 -196 -22 -148 108 -370 261 -442
l58 -27 -6 -40 c-4 -22 -12 -80 -19 -130 l-13 -90 -58 -57 c-74 -72 -211 -142
-326 -165 -148 -31 -309 8 -408 99 -45 41 -60 49 -80 44 -64 -16 -48 -79 38
-147 95 -77 240 -128 358 -129 l46 0 6 -147 c5 -155 18 -216 64 -306 85 -168
290 -253 486 -202 86 22 135 51 202 119 96 97 154 228 190 429 l17 97 63 0
c183 0 435 166 363 238 -20 20 -63 14 -88 -13 -60 -64 -173 -105 -290 -105
-138 0 -253 44 -348 133 -90 86 -100 120 -86 302 l6 70 50 30 c72 43 162 146
206 234 31 63 38 87 40 150 3 64 -1 83 -20 121 -26 50 -90 103 -146 121 -46
14 -303 21 -357 9z"/>
</g>
</svg>
